<svg xmlns="http://www.w3.org/2000/svg" width="48" height="48" viewBox="0 0 48 48"><g transform="translate(0 -1004.362)"><circle cx="24" cy="1028.362" r="24" fill="#ef4c45" fill-rule="evenodd"/><path fill="#df2209" style="line-height:normal;text-indent:0;text-align:start;text-decoration-line:none;text-decoration-style:solid;text-decoration-color:#000;text-transform:none;block-progression:tb;isolation:auto;mix-blend-mode:normal" d="M 21.396484 47.849609 A 23.999992 23.999992 0 0 0 21.603516 47.880859 A 23.999992 23.999992 0 0 0 24 48 A 23.999992 23.999992 0 0 0 25.697266 47.939453 A 23.999992 23.999992 0 0 0 28.080078 47.650391 A 23.999992 23.999992 0 0 0 30.419922 47.125 A 23.999992 23.999992 0 0 0 32.697266 46.369141 A 23.999992 23.999992 0 0 0 34.886719 45.388672 A 23.999992 23.999992 0 0 0 36.966797 44.195312 A 23.999992 23.999992 0 0 0 38.917969 42.800781 A 23.999992 23.999992 0 0 0 40.720703 41.216797 A 23.999992 23.999992 0 0 0 42.355469 39.460938 A 23.999992 23.999992 0 0 0 43.808594 37.550781 A 23.999992 23.999992 0 0 0 45.0625 35.505859 A 23.999992 23.999992 0 0 0 46.105469 33.345703 A 23.999992 23.999992 0 0 0 46.927734 31.091797 A 23.999992 23.999992 0 0 0 47.521484 28.767578 A 23.999992 23.999992 0 0 0 47.880859 26.396484 A 23.999992 23.999992 0 0 0 47.974609 24.515625 L 31.662109 8.203125 A 0.50005 0.50005 0 0 0 31.183594 7.8339844 A 0.50005 0.50005 0 0 0 31.132812 7.8339844 A 0.50005 0.50005 0 0 0 31.050781 7.8496094 L 29.056641 8.3847656 A 0.50054486 0.50054486 0 0 0 29.316406 9.3515625 L 29.724609 9.7597656 C 28.429021 11.750468 26.65403 13.851646 24.544922 15.808594 C 23.379301 16.890121 22.115529 17.926813 20.783203 18.875 C 17.674443 21.087437 14.191281 22.818034 10.703125 23.509766 A 0.50082436 0.50082436 0 1 0 10.898438 24.492188 L 13.40625 27 L 11.546875 27 A 0.50005 0.50005 0 0 0 11.046875 27.5 L 11.046875 37.5 A 0.50005 0.50005 0 0 0 11.546875 38 L 21.396484 47.849609 z " color="#000" font-family="sans-serif" font-weight="400" transform="translate(0 1004.362)"/><path fill="#fff" style="line-height:normal;text-indent:0;text-align:start;text-decoration-line:none;text-decoration-style:solid;text-decoration-color:#000;text-transform:none;block-progression:tb;isolation:auto;mix-blend-mode:normal" d="m 22.0625,0.83398438 a 0.50005,0.50005 0 0 0 -0.08203,0.015625 L 19.986328,1.3847656 a 0.50054486,0.50054486 0 0 0 0.259766,0.9667969 l 0.814453,-0.21875 C 17.553482,7.9219225 9.6057407,14.928661 1.6328125,16.509766 A 0.50082431,0.50082431 0 0 0 1.828125,17.492188 C 10.237315,15.82452 18.280793,8.6840504 21.935547,2.6171875 l 0.222656,0.8339844 A 0.50029085,0.50029085 0 1 0 23.125,3.1933594 L 22.591797,1.203125 a 0.50005,0.50005 0 0 0 -0.478516,-0.36914062 0.50005,0.50005 0 0 0 -0.05078,0 z M 20.476562,7.9160156 c -0.276129,0 -0.49997,0.2239 -0.5,0.5 l 0,9.1191404 c 0.321672,-0.1364 0.652037,-0.256897 1,-0.341797 l 0,-1.277343 0,-7.0000004 2,0 0,6.0000004 a 1.0001,1.0001 0 0 1 1,1 l 0,-7.5000004 c -2.9e-5,-0.2761 -0.22387,-0.5 -0.5,-0.5 l -3,0 z m -6,5.9960934 0,0.0039 c -0.27613,0 -0.499969,0.2239 -0.5,0.5 l 0,8.5 a 1.0001,1.0001 0 0 1 0.04492,-0.294922 1.0001,1.0001 0 0 1 0.07813,-0.183594 1.0001,1.0001 0 0 1 0.876953,-0.521484 l 0,-6.996094 2,0 0,5.234375 c 0.279347,-0.4725 0.613372,-0.906863 1,-1.289063 l 0,-4.443359 c -2.9e-5,-0.2761 -0.22387,-0.5 -0.5,-0.5 l -3,-0.0098 z m 7.5,2.003907 0,2.023437 c -2.633162,0.239307 -4.736119,2.343201 -4.974609,4.976563 l -2.025391,0 0,1 2.025391,0 c 0.239249,2.632627 2.342023,4.735359 4.974609,4.974609 l 0,2.025391 1,0 0,-2.025391 c 2.632588,-0.23925 4.735362,-2.341982 4.97461,-4.974609 l 2.02539,0 0,-1 -2.02539,0 c -0.23849,-2.633362 -2.341446,-4.737256 -4.97461,-4.976563 l 0,-2.023437 -1,0 z M 8.4765625,18 a 0.50004997,0.50004997 0 0 0 -0.5,0.5 l 0,12 a 0.50004997,0.50004997 0 0 0 0.5,0.5 l 2.9999995,0 a 0.50004997,0.50004997 0 0 0 0.5,-0.5 l 0,-12 a 0.50004997,0.50004997 0 0 0 -0.5,-0.5 l -2.9999995,0 z m 13.4999995,0.964844 0,1.001953 c -1.525234,0.222109 -2.727768,1.423821 -2.949218,2.949219 l -1,0 c 0.23176,-2.085346 1.864008,-3.718967 3.949218,-3.951172 z m 1,0 c 2.085211,0.232205 3.71746,1.865826 3.949219,3.951172 l -1,0 c -0.221449,-1.525398 -1.423983,-2.72711 -2.949219,-2.949219 l 0,-1.001953 z M 8.9765625,19 l 1.9999995,0 0,11 -1.9999995,0 0,-11 z m -6.5,1 a 0.50005,0.50005 0 0 0 -0.5,0.5 l 0,10 a 0.50005,0.50005 0 0 0 0.5,0.5 l 3,0 a 0.50005,0.50005 0 0 0 0.5,-0.5 l 0,-10 a 0.50005,0.50005 0 0 0 -0.5,-0.5 l -3,0 z m 19.4941405,0.964844 c 0.0019,-3.81e-4 0.004,3.76e-4 0.0059,0 l 0,1.042968 c -0.421779,0.151865 -0.754385,0.486425 -0.90625,0.908204 l -1.042968,0 c 0.197117,-0.981564 0.962596,-1.751876 1.943359,-1.951172 z m 1.005859,0 c 0.983453,0.197497 1.751727,0.967735 1.949219,1.951172 l -1.042969,0 c -0.151864,-0.421779 -0.48447,-0.756339 -0.90625,-0.908204 l 0,-1.042968 z M 2.9765625,21 l 2,0 0,9 -2,0 0,-9 z m 10.9999995,2.916016 0,6.496093 c 3.1e-5,0.2761 0.22387,0.5 0.5,0.5 l 3,-0.0098 c 0.27613,0 0.499971,-0.2239 0.5,-0.5 l 0,-2.44336 c -0.386641,-0.3826 -0.720748,-0.816162 -1,-1.289062 l 0,3.234375 -2,0 0,-4.992188 a 1.0001,1.0001 0 0 1 -1,-0.996093 z m 4.050782,0 1,0 c 0.221978,1.524861 1.424371,2.727241 2.949218,2.949218 l 0,1 c -2.084815,-0.232202 -3.71702,-1.864403 -3.949218,-3.949218 z m 2,0 1.042968,0 c 0.152165,0.420962 0.485053,0.754594 0.90625,0.90625 l 0,1.042968 c -0.98283,-0.197359 -1.751129,-0.96663 -1.949218,-1.949218 z m 3.855468,0 1.042969,0 c -0.198088,0.982588 -0.966388,1.751859 -1.949219,1.949218 l 0,-1.042968 c 0.421198,-0.151656 0.754086,-0.485288 0.90625,-0.90625 z m 2.042969,0 1,0 c -0.232197,2.084815 -1.864402,3.717016 -3.949219,3.949218 l 0,-1 c 1.524849,-0.221977 2.727242,-1.424357 2.949219,-2.949218 z m -5.949219,5.376953 0,0.002 0,1.117187 c 3e-5,0.2761 0.223871,0.5 0.5,0.5 l 0.5,0 0,-1.005859 0,-0.271484 c -0.347782,-0.085 -0.678512,-0.205397 -1,-0.341797 z" color="#000" font-family="sans-serif" font-weight="400" overflow="visible" transform="translate(9.07 1011.362)"/></g></svg>