<svg xmlns="http://www.w3.org/2000/svg" width="400" height="400" enable-background="new 0 0 400 400" viewBox="0 0 400 400"><path fill="#2A94F4" d="M378.414,200.001c0,3.062-1.315,5.975-3.61,7.998l-33.849,29.768l14.428,42.71
					c0.979,2.896,0.659,6.082-0.868,8.732c-1.535,2.646-4.129,4.512-7.13,5.113l-44.196,8.867l-8.862,44.194
					c-0.6,2.998-2.465,5.597-5.117,7.13c-1.64,0.943-3.477,1.429-5.326,1.429c-1.148,0-2.298-0.187-3.407-0.565l-42.703-14.422
					l-29.774,33.843c-2.023,2.301-4.936,3.616-7.998,3.616s-5.976-1.315-7.994-3.616l-29.773-33.843l-42.703,14.422
					c-1.113,0.379-2.264,0.565-3.408,0.565c-1.854,0-3.69-0.485-5.326-1.429c-2.651-1.533-4.515-4.132-5.117-7.13l-8.867-44.194
					l-44.194-8.867c-2.998-0.602-5.597-2.467-7.125-5.113c-1.534-2.65-1.849-5.836-0.868-8.732l14.421-42.71l-33.843-29.768
					c-2.301-2.023-3.615-4.937-3.615-7.998c0-3.063,1.314-5.976,3.615-8l33.843-29.768l-14.421-42.709
					c-0.98-2.897-0.666-6.081,0.868-8.732c1.528-2.647,4.127-4.517,7.125-5.118l44.194-8.862l8.867-44.195
					c0.603-3.002,2.466-5.596,5.117-7.129c1.636-0.943,3.473-1.427,5.326-1.427c1.145,0,2.295,0.186,3.408,0.559l42.703,14.426
					l29.773-33.842c2.019-2.3,4.932-3.616,7.994-3.616s5.975,1.315,7.998,3.616l29.774,33.842l42.703-14.426
					c1.109-0.373,2.259-0.559,3.407-0.559c1.85,0,3.691,0.484,5.326,1.427c2.652,1.533,4.518,4.127,5.117,7.129l8.862,44.195
					l44.196,8.862c3.001,0.601,5.595,2.471,7.13,5.118c1.527,2.651,1.847,5.835,0.868,8.732l-14.428,42.709l33.849,29.768
					C377.099,194.025,378.414,196.938,378.414,200.001z"/><path fill="#FFBE55" d="M291.596,188.347l-38.392,37.426l9.063,52.838c0.658,3.83-0.915,7.703-4.061,9.986
					c-1.78,1.293-3.887,1.95-6.003,1.95c-1.624,0-3.257-0.389-4.751-1.176l-47.452-24.946l-47.455,24.946
					c-1.494,0.787-3.124,1.176-4.751,1.176c-2.117,0-4.224-0.657-6.001-1.95c-3.145-2.283-4.72-6.156-4.063-9.986l9.063-52.838
					l-38.391-37.426c-2.781-2.713-3.785-6.77-2.584-10.466c1.202-3.697,4.397-6.389,8.243-6.951l53.055-7.708l23.726-48.074
					c1.722-3.485,5.271-5.694,9.158-5.694s7.433,2.209,9.155,5.694l23.726,48.074l53.059,7.708c3.845,0.562,7.037,3.254,8.238,6.951
					C295.381,181.577,294.38,185.634,291.596,188.347z"/></svg>