<svg xmlns="http://www.w3.org/2000/svg" width="48" height="48" viewBox="0 0 48 48"><g fill="#fff" transform="translate(8 -1013.362)"><circle cx="16" cy="1037.362" r="24" fill="#ffa40b" fill-rule="evenodd"/><path d="m 16,3.9941406 c -2.468191,0 -4.478557,2.0222 -4.478516,4.5 2e-5,2.4777004 2.010368,4.5000004 4.478516,4.5000004 2.468147,0 4.476543,-2.0223 4.476562,-4.5000004 4.3e-5,-2.4778 -2.008371,-4.5 -4.476562,-4.5 z m 0,1 c 1.924613,0 3.476595,1.5595 3.476562,3.5 C 19.476547,10.434541 17.924579,11.994141 16,11.994141 c -1.924579,0 -3.4785,-1.5596 -3.478516,-3.5000004 -3.2e-5,-1.9405 1.553902,-3.5 3.478516,-3.5 z M 7.5,7.3203125 c -1.9626774,0 -3.5605577,1.6147906 -3.5605469,3.5878905 -1.08e-5,1.9732 1.5978695,3.587891 3.5605469,3.587891 1.9626775,0 3.560558,-1.614691 3.560547,-3.587891 C 11.060558,8.9351031 9.4626775,7.3203125 7.5,7.3203125 Z m 0,1 c 1.4173305,0 2.560555,1.1503906 2.560547,2.5878905 8e-6,1.4376 -1.1432165,2.587891 -2.560547,2.587891 -1.4173304,0 -2.5605548,-1.150291 -2.5605469,-2.587891 C 4.9394452,9.4707031 6.0826696,8.3203125 7.5,8.3203125 Z M 25.667969,11.125 c -1.597583,0.114789 -3.114647,1.000328 -3.972657,2.501953 -0.205642,0.359916 -0.345613,0.738322 -0.455078,1.121094 -0.187443,-0.10464 -0.379055,-0.200819 -0.578125,-0.285156 -0.357057,-0.1511 -0.732699,-0.268057 -1.121093,-0.347657 -0.389099,-0.08 -0.791615,-0.121093 -1.203125,-0.121093 l -4.677735,0 c -1.303226,0 -2.504055,0.423285 -3.484375,1.134765 -0.2853664,-0.05465 -0.576253,-0.0918 -0.8749998,-0.0918 l -3.6015624,0 0,0.002 C 3.1020028,15.039062 1,17.160484 1,19.771484 l 0,2.71875 a 0.50004994,0.50004994 0 0 0 0.5,0.5 l 2.3671875,0 a 0.50004994,0.50004994 0 0 0 0.2480469,0 l 3.5859375,0 0,0.507813 a 0.50004994,0.50004994 0 0 0 0.5,0.5 l 3.0996091,0 a 0.50004997,0.50004997 0 0 0 0.279297,0 l 8.203125,0 -0.291015,0.507812 -0.736329,1.289063 c -0.400413,0.7012 -0.152423,1.608625 0.544922,2.015625 a 0.50004997,0.50004997 0 0 0 0.002,0 c 0.697107,0.4023 1.607268,0.165944 2.007813,-0.535156 L 23.877,22.78125 l 0.01953,0.01172 a 0.50005006,0.50005006 0 0 0 0.685547,-0.183594 l 0.833985,-1.462891 c 1.922779,0.231327 3.891828,-0.684594 4.917968,-2.480468 1.372825,-2.4027 0.553201,-5.49166 -1.828125,-6.88086 -0.892993,-0.52095 -1.879341,-0.729029 -2.83789,-0.660156 z m 0.06836,0.996094 c 0.766078,-0.05424 1.556424,0.11489 2.273438,0.533203 1.912047,1.1154 2.565097,3.571912 1.458984,5.507812 -1.106105,1.9358 -3.539136,2.595869 -5.451172,1.480469 -1.912038,-1.1155 -2.565089,-3.575819 -1.458984,-5.511719 0.691315,-1.209875 1.900938,-1.919368 3.177734,-2.009765 z m -12.076172,2.873047 0.998047,0 -0.367187,5.333984 a 0.50005,0.50005 0 0 0 0.158203,0.398437 l 1.208984,1.132813 a 0.50005,0.50005 0 0 0 0.683594,0 l 1.207031,-1.132813 a 0.50005,0.50005 0 0 0 0.158203,-0.398437 l -0.365234,-5.333984 0.996094,0 c 0.344491,0 0.681053,0.03506 1.003906,0.101562 0.323556,0.066 0.633261,0.163563 0.929687,0.289063 0.277383,0.117465 0.538363,0.263903 0.78711,0.427734 -0.07508,1.178547 0.249261,2.355757 0.941406,3.3125 l -0.851562,1.494141 a 0.50005006,0.50005006 0 0 0 0.177734,0.677734 l -0.384766,0.671875 0,-1.474609 a 0.50004997,0.50004997 0 0 0 -0.507812,-0.50586 0.50004997,0.50004997 0 0 0 -0.492188,0.50586 l 0,2.523437 a 0.50004994,0.50004994 0 0 0 -0.144531,-0.01953 l -7.855469,0 0,-2.503906 a 0.50004997,0.50004997 0 0 0 -0.507812,-0.50586 0.50004997,0.50004997 0 0 0 -0.492188,0.50586 l 0,2.503906 -2.2402341,0 0,-3.021485 c 0,-2.770099 2.2045061,-4.982421 4.9589841,-4.982421 z m 2,0 0.677735,0 0.355468,5.166015 L 16,20.808594 15.306641,20.160156 15.660156,14.994141 Z m -9.9609372,1.044921 3.4804687,0 c -0.9182591,1.052488 -1.4785156,2.427931 -1.4785156,3.9375 l 0,2.013672 -3.2089844,0 0,-1.818359 A 0.50004994,0.50004994 0 0 0 3.9863281,19.664062 0.50004994,0.50004994 0 0 0 3.4921875,20.171875 l 0,1.818359 -1.4921875,0 0,-2.21875 c 0,-2.0784 1.6427984,-3.732422 3.6992188,-3.732422 z m 17.0019532,3.873047 c 0,0 0.002,0.002 0.002,0.002 0.247563,0.222164 0.520695,0.422054 0.818359,0.595704 0.284083,0.165738 0.577626,0.298688 0.876954,0.402343 l -0.435547,0.763672 -1.701172,-0.992187 0.439453,-0.771485 z m -0.509766,1.888672 0.822266,0.478516 -2.570313,4.5 c -0.132337,0.2317 -0.39971,0.302716 -0.638671,0.166015 C 19.569437,26.806713 19.492512,26.523016 19.625,26.291016 l 0.736328,-1.289063 0.384766,-0.671875 0.451172,-0.791016 0.533203,-0.933593 0.460937,-0.804688 z" color="#000" font-family="sans-serif" font-weight="400" overflow="visible" transform="translate(1 1021.362)" style="line-height:normal;text-indent:0;text-align:start;text-decoration-line:none;text-decoration-style:solid;text-decoration-color:#000;text-transform:none;block-progression:tb;isolation:auto;mix-blend-mode:normal"/></g></svg>