<svg xmlns="http://www.w3.org/2000/svg" width="48" height="48" viewBox="0 0 48 48"><g transform="translate(0 -1004.362)"><circle cx="657.054" cy="437.094" r="15.268" fill="#9257a2" fill-rule="evenodd" transform="translate(-1008.841 341.281) scale(1.57193)"/><path fill="#fff" d="m 7.0019531,2.0058594 0,3.0566406 C 2.7683301,5.510632 0.10742187,8.6835938 0.10742188,8.6835938 a 0.50005,0.50005 0 0 0 0,0.6445312 c 0,0 2.66090822,3.171009 6.89453122,3.619141 l 0,17.048828 20.9980469,0 0,-27.9902346 -20.9980469,0 z m 1,1 18.9980469,0 0,2.9960937 L 15.384766,17.396484 11.75,15.330078 a 0.50005,0.50005 0 0 0 -0.496094,0 l -3.2519529,1.867188 0,-4.191407 c 4.7983689,-0.0061 7.8710939,-3.677734 7.8710939,-3.677734 a 0.50005,0.50005 0 0 0 0,-0.6445312 c 0,0 -3.072726,-3.6716419 -7.8710939,-3.6777344 l 0,-2 z m -0.011719,3 c 3.8753179,0 6.2542549,2.4738 6.7382819,3 -0.483819,0.5259 -2.862757,2.9999996 -6.7382819,2.9999996 -3.8755244,0 -6.2544627,-2.4740996 -6.7382813,-2.9999996 0.4840267,-0.5262 2.8629633,-3 6.7382813,-3 z m -0.6679688,0.4960937 0,0.00195 a 0.50005,0.50005 0 0 0 -0.1308594,0.025391 c -0.3774512,0.1251 -0.7210428,0.3373406 -1.0019531,0.6191406 -0.9897144,0.9926 -0.9896428,2.6147219 0,3.6074213 0.9896853,0.9926 2.6118772,0.9926 3.6015625,0 C 10.575578,9.9688594 10.742728,8.7877906 10.277344,7.8378906 A 0.50005,0.50005 0 0 0 9.5039062,7.6777344 L 8.0175781,8.9414062 7.7382812,8.6640625 A 0.50005,0.50005 0 1 0 7.03125,9.3710938 l 0.6054688,0.6035156 a 0.50005,0.50005 0 0 0 0.6777343,0.027344 L 9.4882812,9.0039062 c -0.010782,0.3795001 -0.1144274,0.7540751 -0.40625,1.0468748 -0.6080906,0.6098 -1.575503,0.6098 -2.1835937,0 -0.6081332,-0.6100998 -0.6080615,-1.5874654 0,-2.1972654 0.1706897,-0.1712 0.3784771,-0.2991 0.6074219,-0.375 A 0.50005,0.50005 0 0 0 7.3222656,6.5019531 Z M 27,7.4003906 l 0,15.6054684 -2.998047,0 0,-12.664062 L 27,7.4003906 Z m -3.998047,3.9218754 0,11.683593 -3,0 0,-8.740234 3,-2.943359 z m -4,3.925781 0,7.757812 -3,0 0,-4.814453 3,-2.943359 z m -6.998047,1.375 2.998047,1.705078 0,4.677734 -3,0 0.002,-6.382812 z m -1,0.002 -0.002,6.380859 -2.9999999,0 0,-4.654297 L 11.003906,16.625 Z m -3.0019529,7.380859 8.9999999,0 0,4.990235 -8.9999999,0 0,-4.990235 z m 9.9999999,0 8.998047,0 0,4.990235 -8.998047,0 0,-4.990235 z m -5.486328,0.914063 -2.240234,2.214844 0.703125,0.710937 1.537109,-1.519531 1.539063,1.519531 0.703124,-0.710937 -2.242187,-2.214844 z m 8.5,0.21289 -0.699219,0.714844 2.146485,2.097656 2.146484,-2.097656 -0.697266,-0.714844 -1.449218,1.414063 -1.447266,-1.414063 z" color="#000" font-family="sans-serif" font-weight="400" overflow="visible" transform="translate(8 1012.361)" style="line-height:normal;text-indent:0;text-align:start;text-decoration-line:none;text-decoration-style:solid;text-decoration-color:#000;text-transform:none;block-progression:tb;isolation:auto;mix-blend-mode:normal"/></g></svg>